<svg width="290" height="580" viewBox="0 0 290 580" fill="none" xmlns="http://www.w3.org/2000/svg">
<mask id="mask0_21_192" style="mask-type:alpha" maskUnits="userSpaceOnUse" x="0" y="0" width="290" height="580">
<rect width="290" height="580" fill="white"/>
</mask>
<g mask="url(#mask0_21_192)">
<path d="M0 290C0 129.837 129.837 0 290 0C450.163 0 580 129.837 580 290C580 450.163 450.163 580 290 580C129.837 580 0 450.163 0 290Z" fill="#EB3C0D"/>
<path d="M54 290C54 144.749 171.749 27 317 27C462.251 27 580 144.749 580 290C580 435.251 462.251 553 317 553C171.749 553 54 435.251 54 290Z" fill="white"/>
<path d="M110 290C110 160.213 215.213 55 345 55C474.787 55 580 160.213 580 290C580 419.787 474.787 525 345 525C215.213 525 110 419.787 110 290Z" fill="#252323"/>
</g>
</svg>
